# WaveFront *.obj file (generated by Autodesk ATF)

mtllib 2b0a8283-174a-41a0-a1b2-e406933a72ad.mtl

g Body1

v -1.656440 14.149222 0.000000
v -1.656440 2.815922 0.000000
v -1.656440 2.815922 8.916000
v -1.656440 14.149222 8.916000
v 13.760227 14.149222 0.000000
v 13.760227 14.149222 8.916000
v 13.760227 -7.933778 0.000000
v 13.760227 -7.933778 8.916000
v 12.760227 -7.933778 0.000000
v 12.760227 -7.933778 8.916000
v 12.760227 13.149222 0.000000
v 12.760227 13.149222 8.916000
v -0.656440 13.149222 0.000000
v -0.656440 13.149222 8.916000
v -0.656440 2.815922 0.000000
v -0.656440 2.815922 8.916000
vt -0.000000 0.000000 0.000000
vt 345.438984 0.000000 0.000000
vt -0.000000 271.759680 0.000000
vt 345.438984 271.759680 0.000000
vt -0.000000 0.000000 0.000000
vt 469.900000 0.000000 0.000000
vt -0.000000 271.759680 0.000000
vt 469.900000 271.759680 0.000000
vt 0.000000 0.000000 0.000000
vt 673.089840 0.000000 0.000000
vt 0.000000 271.759680 0.000000
vt 673.089840 271.759680 0.000000
vt 0.000000 0.000000 0.000000
vt 30.480000 0.000000 0.000000
vt 0.000000 271.759680 0.000000
vt 30.480000 271.759680 0.000000
vt 0.000000 0.000000 0.000000
vt 642.609840 0.000000 0.000000
vt 0.000000 271.759680 0.000000
vt 642.609840 271.759680 0.000000
vt 0.000000 0.000000 0.000000
vt 408.940000 0.000000 0.000000
vt 0.000000 271.759680 0.000000
vt 408.940000 271.759680 0.000000
vt 0.000000 0.000000 0.000000
vt 314.958984 0.000000 0.000000
vt 0.000000 271.759680 0.000000
vt 314.958984 271.759680 0.000000
vt 0.000000 0.000000 0.000000
vt 30.480000 0.000000 0.000000
vt 0.000000 271.759680 0.000000
vt 30.480000 271.759680 0.000000
vt -204.470000 -8.894064 0.000000
vt -204.470000 306.064920 0.000000
vt -234.950000 -8.894064 0.000000
vt -234.950000 336.544920 0.000000
vt 204.470000 306.064920 0.000000
vt 234.950000 336.544920 0.000000
vt 234.950000 -336.544920 0.000000
vt 204.470000 -336.544920 0.000000
vt 204.470000 -8.894064 0.000000
vt 234.950000 -8.894064 0.000000
vt 204.470000 306.064920 0.000000
vt 234.950000 336.544920 0.000000
vt -234.950000 336.544920 0.000000
vt -204.470000 306.064920 0.000000
vt -234.950000 -336.544920 0.000000
vt -204.470000 -336.544920 0.000000
vn -30.480000 0.000000 0.000000
vn -30.480000 0.000000 0.000000
vn -30.480000 0.000000 0.000000
vn -30.480000 0.000000 0.000000
vn 0.000000 30.480000 0.000000
vn 0.000000 30.480000 0.000000
vn 0.000000 30.480000 0.000000
vn 0.000000 30.480000 0.000000
vn 30.480000 0.000000 0.000000
vn 30.480000 0.000000 0.000000
vn 30.480000 0.000000 0.000000
vn 30.480000 0.000000 0.000000
vn 0.000000 -30.480000 0.000000
vn 0.000000 -30.480000 0.000000
vn 0.000000 -30.480000 0.000000
vn 0.000000 -30.480000 0.000000
vn -30.480000 0.000000 0.000000
vn -30.480000 0.000000 0.000000
vn -30.480000 0.000000 0.000000
vn -30.480000 0.000000 0.000000
vn 0.000000 -30.480000 0.000000
vn 0.000000 -30.480000 0.000000
vn 0.000000 -30.480000 0.000000
vn 0.000000 -30.480000 0.000000
vn 30.480000 0.000000 0.000000
vn 30.480000 0.000000 0.000000
vn 30.480000 0.000000 0.000000
vn 30.480000 0.000000 0.000000
vn 0.000000 -30.480000 0.000000
vn 0.000000 -30.480000 0.000000
vn 0.000000 -30.480000 0.000000
vn 0.000000 -30.480000 0.000000
vn 0.000000 0.000000 30.480000
vn 0.000000 0.000000 30.480000
vn 0.000000 0.000000 30.480000
vn 0.000000 0.000000 30.480000
vn 0.000000 0.000000 30.480000
vn 0.000000 0.000000 30.480000
vn 0.000000 0.000000 30.480000
vn 0.000000 0.000000 30.480000
vn -0.000000 0.000000 -30.480000
vn -0.000000 0.000000 -30.480000
vn -0.000000 0.000000 -30.480000
vn -0.000000 0.000000 -30.480000
vn -0.000000 0.000000 -30.480000
vn -0.000000 0.000000 -30.480000
vn -0.000000 0.000000 -30.480000
vn -0.000000 0.000000 -30.480000
usemtl Steel_-_Satin
f 1/1/1 2/2/2 4/3/3
f 4/3/3 2/2/2 3/4/4
f 5/5/5 1/6/6 6/7/7
f 6/7/7 1/6/6 4/8/8
f 7/9/9 5/10/10 8/11/11
f 8/11/11 5/10/10 6/12/12
f 9/13/13 7/14/14 10/15/15
f 10/15/15 7/14/14 8/16/16
f 11/17/17 9/18/18 12/19/19
f 12/19/19 9/18/18 10/20/20
f 13/21/21 11/22/22 14/23/23
f 14/23/23 11/22/22 12/24/24
f 15/25/25 13/26/26 16/27/27
f 16/27/27 13/26/26 14/28/28
f 2/29/29 15/30/30 3/31/31
f 3/31/31 15/30/30 16/32/32
f 16/33/33 14/34/34 3/35/35
f 3/35/35 14/34/34 4/36/36
f 4/36/36 14/34/34 12/37/37
f 4/36/36 12/37/37 6/38/38
f 6/38/38 12/37/37 8/39/39
f 8/39/39 12/37/37 10/40/40
f 15/41/41 2/42/42 13/43/43
f 13/43/43 2/42/42 1/44/44
f 13/43/43 1/44/44 5/45/45
f 13/43/43 5/45/45 11/46/46
f 11/46/46 5/45/45 7/47/47
f 11/46/46 7/47/47 9/48/48

# 16 vertices
# 48 texture params
# 48 normals
# 28 facets

# 1 groups
